<?xml version="1.0" encoding="UTF-8"?>
<svg version="1.1" viewBox="0 0 2048 489" width="557" height="133" xmlns="http://www.w3.org/2000/svg">
<path transform="translate(174,173)" d="m0 0h57l10 11 9 11 9 10 8 10 9 10 8 10 22 26 9 11 13 15 9 11 11 13 3 5v57l-4-2-12-14-9-11-24-28-9-11-9-10-9-11-9-10-9-11-12-14-13-16-9-8-16-8-14-3h-13l-14 3-14 7-10 8-8 10-8 17-2 7-1 15 3 16 8 16 8 10 10 8 14 7 13 3h16l15-4 9-5 4 1 7 9 10 11 9 11 13 15 2 5h-89l-14-2-16-5-18-10-13-11-9-9-9-13-8-15-5-15-2-10-1-10v-11l2-17 4-15 8-17 9-13 9-10 11-10 11-7 16-8 16-4z" fill="#F49226"/>
<path transform="translate(872,176)" d="m0 0h55l13 2 13 5 11 7 10 10 8 15 3 13v20l-4 13-6 11-9 10-11 7-2 1 2 5 8 13 15 24 13 21 2 9-4 7-2 2-4 1h-8l-8-7-12-20-10-16-14-23-5-8h-36l-1 66-6 7-9 1-6-2-4-4-1-5v-176l3-5zm18 24-1 1v71h43l12-5 10-9 4-7 1-4v-19l-4-10-9-10-8-5-13-3z" fill="#01A2DB"/>
<path transform="translate(515,176)" d="m0 0h8l5 3 6 10 19 46 18 43 17 41 14 34 1 10-3 5-3 3-4 1h-7l-5-3-4-6-12-30-1-3h-88l-2 1-11 28-5 9-3 3-10 1-6-3-4-8 1-7 15-37 14-33 13-31 12-29 15-36 5-8zm4 44-10 23-12 30-13 32 1 3h69l-1-6-6-16-12-30-13-32-2-4z" fill="#01A2DB"/>
<path transform="translate(1310,176)" d="m0 0h8l5 3 8 16 16 38 12 29 30 72 9 22v8l-6 7-3 1h-7l-5-2-4-5-10-24-4-10v-2l-89 1-5 11-10 24-4 5-5 2-9-1-5-4-2-5 1-9 40-96 8-19 12-29 11-26 4-5zm3 44-8 20-25 62-1 6h70l-1-6-12-31-11-27-10-24z" fill="#01A2DB"/>
<path transform="translate(715,176)" d="m0 0h60l16 3 16 8 10 9 7 9 6 13 3 14v18l-4 16-7 13-10 11-14 9-19 5-13 1h-33l-1 59-6 7-9 1-7-3-4-5-1-10v-166l2-5 4-5zm18 24-1 1v79h43l9-2 10-6 7-7 5-10 2-9v-9l-3-13-5-9-5-6-10-6-6-2-7-1z" fill="#01A2DB"/>
<path transform="translate(1597,234)" d="m0 0h20l15 3 14 7 10 9 3 5v7l-7 7h-8l-11-7-8-5-7-2-16-1-11 2-6 3-4 6v7l3 5 5 4 11 4 29 7 14 6 10 7 7 11 2 7v12l-3 9-5 9-9 8-12 6-16 3h-19l-17-3-13-5-12-7-5-6-2-4 1-6 4-6 7-3 7 1 14 10 10 4 5 1h21l9-3 6-4 2-3 1-6-2-8-7-6-15-5-25-6-12-5-10-7-7-10-3-8v-13l4-10 7-8 8-6 8-4z" fill="#01A2DB"/>
<path transform="translate(1463,234)" d="m0 0h21l14 3 16 8 9 9 3 8-3 6-6 4h-6l-12-7-8-5-7-2-15-1-12 2-8 5-2 3v8l4 6 12 6 29 7 13 5 10 6 5 4 5 7 3 8v16l-5 12-9 10-10 6-8 3-13 2h-19l-17-3-15-6-11-7-5-6-1-7 4-6 5-4 7-1 7 3 7 6 11 5 7 2h21l9-3 6-4 4-6-1-8-7-8-16-6-23-5-16-7-8-6-6-7-4-9v-18l5-10 8-8 14-7z" fill="#01A2DB"/>
<path transform="translate(1808,234)" d="m0 0h20l15 3 16 8 10 10 2 5-1 5-4 5-7 3-12-6-9-6-8-3-16-1-12 2-8 5-2 3v8l4 6 7 4 13 4 24 6 12 5 9 6 5 5 4 5 3 9v14l-4 11-7 9-7 6-11 5-16 3h-19l-17-3-15-6-11-7-5-7v-8l6-7 5-2 8 1 10 8 11 5 7 2h22l10-4 6-5 2-5-2-9-5-5-8-4-9-3-23-5-16-7-8-6-6-7-4-9-1-5v-8l3-10 4-6 7-7 14-7z" fill="#01A2DB"/>
<path transform="translate(1029,176)" d="m0 0h7l8 5 2 6v159h95l6 5 2 5-1 9-5 6-7 1h-108l-6-5-2-4v-179l4-5z" fill="#01A2DB"/>
<path transform="translate(1919,191)" d="m0 0h8l7 4 2 5 1 39 24 1 5 3 3 5v6l-4 6-2 1-26 1v65l3 10 6 7 3 1 14 1 7 3 4 4 1 9-4 6-3 3-5 1h-14l-12-3-9-6-7-7-7-14-3-12v-69h-16l-4-2-4-7 1-5 5-6 2-1h15l1-40 3-5z" fill="#01A2DB"/>
<path transform="translate(265,167)" d="m0 0h86l4 2v106l-4-2-9-10-8-10-11-13-9-11-11-13-8-10-11-13-9-11-11-13z" fill="#01A2DB"/>
<path transform="translate(640,235)" d="m0 0h10l6 5 2 4v119l-4 6-2 2-9 1-6-2-5-6v-121l6-7z" fill="#01A2DB"/>
<path transform="translate(1704,235)" d="m0 0h11l6 5 1 3v121l-6 7-3 1h-7l-6-3-3-5v-122l4-5z" fill="#01A2DB"/>
<path transform="translate(301,105)" d="m0 0h17l11 3 10 5 7 6 6 12v11l-3 1h-79l-3-1v-10l3-8 6-8 9-6 11-4z" fill="#01A2DB"/>
<path transform="translate(1706,179)" d="m0 0 9 1 6 4 4 5 1 10-4 8-6 5-9 1-7-3-5-5-3-8 1-6 4-7 6-4z" fill="#01A2DB"/>
<path transform="translate(642,179)" d="m0 0 9 1 6 4 4 6 1 9-3 6-5 5-6 3-9-1-6-4-5-9 1-9 5-7z" fill="#01A2DB"/>
</svg>
